<svg height="188" viewBox="0 0 200 188" width="200" xmlns="http://www.w3.org/2000/svg"><g fill="#000" fill-rule="evenodd"><path d="m141.755537 83.5403315c1.625211 3.9617322 1.940966 5.7346621 3.4083 8.830254 1.191821 2.5139958 2.584859 4.371351 4.467008 5.737789 3.854071 2.7985405 8.726609 2.9017265 14.620707 2.9017265h35.748448c0-26.7878137-10.534462-52.4812263-29.287848-71.4237471-18.756482-18.9425208-44.190258-29.5863539-70.710604-29.5863539-26.5234419 0-51.9572184 10.6438331-70.7136999 29.5863539-18.7533859 18.9425208-29.2878481 44.6359334-29.2878481 71.4237471h35.7484483c5.8940982 0 10.7666352-.103186 14.6207067-2.9017265 1.8852447-1.366438 3.2782826-3.2237932 4.4670083-5.737789 1.4673332-3.0955919 1.7861841-4.8685218 3.4082994-8.830254 6.9961459-17.0601508 23.4742365-28.1823935 41.7570853-28.1823935 18.279753 0 34.757843 11.1222427 41.753989 28.1823935"/><path d="m152.525532 187.875636v.003152c-13.357591-13.629859-26.712093-27.259719-40.072773-40.889578-4.737698-4.834267-7.952785-7.824957-11.946164-7.824957-3.9964679 0-7.2115551 2.99069-11.9492532 7.828108-13.3575908 13.626708-26.7151817 27.256568-40.0727725 40.886427-16.0569051-10.015189-29.0160846-24.458113-37.3734582-41.664825 11.8442453-12.082516 23.6884906-24.168183 35.5296474-36.250699 3.5362871-3.611519 6.0564707-6.079075 9.7440923-7.500362 3.6629139-1.408681 7.6315854-1.452801 13.3514139-1.452801h61.5375713c5.719829 0 9.691589.04412 13.354503 1.452801 3.687621 1.421287 6.204716 3.888843 9.741004 7.500362 11.844245 12.082516 23.685402 24.168183 35.529647 36.250699-8.360462 17.206712-21.313465 31.649636-37.373458 41.661673z"/></g></svg>